<svg viewBox="0 0 304 971" width="304" height="971" xmlns="http://www.w3.org/2000/svg"><rect x="0" y="0" width="304" height="971" fill="#FAF6EE"/><text x="198" y="55" font-size="10" fill="rgb(0, 0, 0)" text-anchor="start" transform="rotate(-60 198 55)">barcode39</text><text x="226" y="55" font-size="10" fill="rgb(0, 0, 0)" text-anchor="start" transform="rotate(-60 226 55)">barcode40</text><text x="254" y="55" font-size="10" fill="rgb(0, 0, 0)" text-anchor="start" transform="rotate(-60 254 55)">barcode42</text><rect x="184" y="59" width="27" height="8" fill="hsl(0, 0%, 60%)"/><rect x="212" y="59" width="27" height="8" fill="hsl(0, 0%, 60%)"/><rect x="240" y="59" width="27" height="8" fill="hsl(0, 0%, 60%)"/><text x="178" y="79" font-size="10" fill="rgb(0, 0, 0)" font-weight="normal" text-anchor="end">Aulorhynchus flavidus</text><rect x="184" y="67" width="27" height="17" fill="hsl(0, 0%, 88%)"><title>Aulorhynchus flavidus × barcode39: 0</title></rect><rect x="212" y="67" width="27" height="17" fill="hsl(0, 0%, 88%)"><title>Aulorhynchus flavidus × barcode40: 0</title></rect><rect x="240" y="67" width="27" height="17" fill="hsl(152, 55%, 40%)"><title>Aulorhynchus flavidus × barcode42: 1</title></rect><text x="178" y="97" font-size="10" fill="rgb(0, 0, 0)" font-weight="normal" text-anchor="end">Volucella latifasciata</text><rect x="184" y="85" width="27" height="17" fill="hsl(152, 55%, 40%)"><title>Volucella latifasciata × barcode39: 1</title></rect><rect x="212" y="85" width="27" height="17" fill="hsl(152, 55%, 40%)"><title>Volucella latifasciata × barcode40: 1</title></rect><rect x="240" y="85" width="27" height="17" fill="hsl(0, 0%, 88%)"><title>Volucella latifasciata × barcode42: 0</title></rect><text x="178" y="115" font-size="10" fill="rgb(0, 0, 0)" font-weight="normal" text-anchor="end">Phoneutria boliviensis</text><rect x="184" y="103" width="27" height="17" fill="hsl(0, 0%, 88%)"><title>Phoneutria boliviensis × barcode39: 0</title></rect><rect x="212" y="103" width="27" height="17" fill="hsl(152, 55%, 40%)"><title>Phoneutria boliviensis × barcode40: 1</title></rect><rect x="240" y="103" width="27" height="17" fill="hsl(0, 0%, 88%)"><title>Phoneutria boliviensis × barcode42: 0</title></rect><text x="178" y="133" font-size="10" fill="rgb(0, 0, 0)" font-weight="normal" text-anchor="end">Dichotomius schiffleri</text><rect x="184" y="121" width="27" height="17" fill="hsl(152, 55%, 40%)"><title>Dichotomius schiffleri × barcode39: 1</title></rect><rect x="212" y="121" width="27" height="17" fill="hsl(152, 55%, 40%)"><title>Dichotomius schiffleri × barcode40: 1</title></rect><rect x="240" y="121" width="27" height="17" fill="hsl(152, 55%, 40%)"><title>Dichotomius schiffleri × barcode42: 1</title></rect><text x="178" y="151" font-size="10" fill="rgb(0, 0, 0)" font-weight="normal" text-anchor="end">Cataglyphis aenescens</text><rect x="184" y="139" width="27" height="17" fill="hsl(152, 55%, 40%)"><title>Cataglyphis aenescens × barcode39: 1</title></rect><rect x="212" y="139" width="27" height="17" fill="hsl(152, 55%, 40%)"><title>Cataglyphis aenescens × barcode40: 1</title></rect><rect x="240" y="139" width="27" height="17" fill="hsl(152, 55%, 40%)"><title>Cataglyphis aenescens × barcode42: 1</title></rect><text x="178" y="169" font-size="10" fill="rgb(0, 0, 0)" font-weight="normal" text-anchor="end">Myotis septentrionalis</text><rect x="184" y="157" width="27" height="17" fill="hsl(0, 0%, 88%)"><title>Myotis septentrionalis × barcode39: 0</title></rect><rect x="212" y="157" width="27" height="17" fill="hsl(0, 0%, 88%)"><title>Myotis septentrionalis × barcode40: 0</title></rect><rect x="240" y="157" width="27" height="17" fill="hsl(152, 55%, 40%)"><title>Myotis septentrionalis × barcode42: 1</title></rect><text x="178" y="187" font-size="10" fill="rgb(0, 0, 0)" font-weight="normal" text-anchor="end">Lycocerus asperipennis</text><rect x="184" y="175" width="27" height="17" fill="hsl(152, 55%, 40%)"><title>Lycocerus asperipennis × barcode39: 1</title></rect><rect x="212" y="175" width="27" height="17" fill="hsl(152, 55%, 40%)"><title>Lycocerus asperipennis × barcode40: 1</title></rect><rect x="240" y="175" width="27" height="17" fill="hsl(0, 0%, 88%)"><title>Lycocerus asperipennis × barcode42: 0</title></rect><text x="178" y="205" font-size="10" fill="rgb(0, 0, 0)" font-weight="normal" text-anchor="end">Coccinella transversoguttata</text><rect x="184" y="193" width="27" height="17" fill="hsl(152, 55%, 40%)"><title>Coccinella transversoguttata × barcode39: 1</title></rect><rect x="212" y="193" width="27" height="17" fill="hsl(152, 55%, 40%)"><title>Coccinella transversoguttata × barcode40: 1</title></rect><rect x="240" y="193" width="27" height="17" fill="hsl(152, 55%, 40%)"><title>Coccinella transversoguttata × barcode42: 1</title></rect><text x="178" y="223" font-size="10" fill="rgb(0, 0, 0)" font-weight="normal" text-anchor="end">Indicator maculatus</text><rect x="184" y="211" width="27" height="17" fill="hsl(0, 0%, 88%)"><title>Indicator maculatus × barcode39: 0</title></rect><rect x="212" y="211" width="27" height="17" fill="hsl(0, 0%, 88%)"><title>Indicator maculatus × barcode40: 0</title></rect><rect x="240" y="211" width="27" height="17" fill="hsl(152, 55%, 40%)"><title>Indicator maculatus × barcode42: 1</title></rect><text x="178" y="241" font-size="10" fill="rgb(0, 0, 0)" font-weight="normal" text-anchor="end">Wadicosa fidelis</text><rect x="184" y="229" width="27" height="17" fill="hsl(0, 0%, 88%)"><title>Wadicosa fidelis × barcode39: 0</title></rect><rect x="212" y="229" width="27" height="17" fill="hsl(152, 55%, 40%)"><title>Wadicosa fidelis × barcode40: 1</title></rect><rect x="240" y="229" width="27" height="17" fill="hsl(0, 0%, 88%)"><title>Wadicosa fidelis × barcode42: 0</title></rect><text x="178" y="259" font-size="10" fill="rgb(0, 0, 0)" font-weight="normal" text-anchor="end">Monolepta occifluvis</text><rect x="184" y="247" width="27" height="17" fill="hsl(152, 55%, 40%)"><title>Monolepta occifluvis × barcode39: 1</title></rect><rect x="212" y="247" width="27" height="17" fill="hsl(152, 55%, 40%)"><title>Monolepta occifluvis × barcode40: 1</title></rect><rect x="240" y="247" width="27" height="17" fill="hsl(0, 0%, 88%)"><title>Monolepta occifluvis × barcode42: 0</title></rect><text x="178" y="277" font-size="10" fill="rgb(0, 0, 0)" font-weight="normal" text-anchor="end">Wasmannia auropunctata</text><rect x="184" y="265" width="27" height="17" fill="hsl(152, 55%, 40%)"><title>Wasmannia auropunctata × barcode39: 1</title></rect><rect x="212" y="265" width="27" height="17" fill="hsl(152, 55%, 40%)"><title>Wasmannia auropunctata × barcode40: 1</title></rect><rect x="240" y="265" width="27" height="17" fill="hsl(0, 0%, 88%)"><title>Wasmannia auropunctata × barcode42: 0</title></rect><text x="178" y="295" font-size="10" fill="rgb(0, 0, 0)" font-weight="normal" text-anchor="end">Pteroptyx maipo</text><rect x="184" y="283" width="27" height="17" fill="hsl(152, 55%, 40%)"><title>Pteroptyx maipo × barcode39: 1</title></rect><rect x="212" y="283" width="27" height="17" fill="hsl(152, 55%, 40%)"><title>Pteroptyx maipo × barcode40: 1</title></rect><rect x="240" y="283" width="27" height="17" fill="hsl(0, 0%, 88%)"><title>Pteroptyx maipo × barcode42: 0</title></rect><text x="178" y="313" font-size="10" fill="rgb(0, 0, 0)" font-weight="normal" text-anchor="end">Plecotus auritus</text><rect x="184" y="301" width="27" height="17" fill="hsl(0, 0%, 88%)"><title>Plecotus auritus × barcode39: 0</title></rect><rect x="212" y="301" width="27" height="17" fill="hsl(0, 0%, 88%)"><title>Plecotus auritus × barcode40: 0</title></rect><rect x="240" y="301" width="27" height="17" fill="hsl(152, 55%, 40%)"><title>Plecotus auritus × barcode42: 1</title></rect><text x="178" y="331" font-size="10" fill="rgb(0, 0, 0)" font-weight="normal" text-anchor="end">Parazen pacificus</text><rect x="184" y="319" width="27" height="17" fill="hsl(0, 0%, 88%)"><title>Parazen pacificus × barcode39: 0</title></rect><rect x="212" y="319" width="27" height="17" fill="hsl(0, 0%, 88%)"><title>Parazen pacificus × barcode40: 0</title></rect><rect x="240" y="319" width="27" height="17" fill="hsl(152, 55%, 40%)"><title>Parazen pacificus × barcode42: 1</title></rect><text x="178" y="349" font-size="10" fill="rgb(0, 0, 0)" font-weight="normal" text-anchor="end">Melanophryniscus moreirae</text><rect x="184" y="337" width="27" height="17" fill="hsl(0, 0%, 88%)"><title>Melanophryniscus moreirae × barcode39: 0</title></rect><rect x="212" y="337" width="27" height="17" fill="hsl(152, 55%, 40%)"><title>Melanophryniscus moreirae × barcode40: 1</title></rect><rect x="240" y="337" width="27" height="17" fill="hsl(152, 55%, 40%)"><title>Melanophryniscus moreirae × barcode42: 1</title></rect><text x="178" y="367" font-size="10" fill="rgb(0, 0, 0)" font-weight="normal" text-anchor="end">Gambusia affinis</text><rect x="184" y="355" width="27" height="17" fill="hsl(0, 0%, 88%)"><title>Gambusia affinis × barcode39: 0</title></rect><rect x="212" y="355" width="27" height="17" fill="hsl(152, 55%, 40%)"><title>Gambusia affinis × barcode40: 1</title></rect><rect x="240" y="355" width="27" height="17" fill="hsl(0, 0%, 88%)"><title>Gambusia affinis × barcode42: 0</title></rect><text x="178" y="385" font-size="10" fill="rgb(0, 0, 0)" font-weight="normal" text-anchor="end">Dryoscopus gambensis</text><rect x="184" y="373" width="27" height="17" fill="hsl(0, 0%, 88%)"><title>Dryoscopus gambensis × barcode39: 0</title></rect><rect x="212" y="373" width="27" height="17" fill="hsl(0, 0%, 88%)"><title>Dryoscopus gambensis × barcode40: 0</title></rect><rect x="240" y="373" width="27" height="17" fill="hsl(152, 55%, 40%)"><title>Dryoscopus gambensis × barcode42: 1</title></rect><text x="178" y="403" font-size="10" fill="rgb(0, 0, 0)" font-weight="normal" text-anchor="end">Ochthebius capicola</text><rect x="184" y="391" width="27" height="17" fill="hsl(152, 55%, 40%)"><title>Ochthebius capicola × barcode39: 1</title></rect><rect x="212" y="391" width="27" height="17" fill="hsl(152, 55%, 40%)"><title>Ochthebius capicola × barcode40: 1</title></rect><rect x="240" y="391" width="27" height="17" fill="hsl(152, 55%, 40%)"><title>Ochthebius capicola × barcode42: 1</title></rect><text x="178" y="421" font-size="10" fill="rgb(0, 0, 0)" font-weight="normal" text-anchor="end">Rhaphidophora quadrispina</text><rect x="184" y="409" width="27" height="17" fill="hsl(0, 0%, 88%)"><title>Rhaphidophora quadrispina × barcode39: 0</title></rect><rect x="212" y="409" width="27" height="17" fill="hsl(0, 0%, 88%)"><title>Rhaphidophora quadrispina × barcode40: 0</title></rect><rect x="240" y="409" width="27" height="17" fill="hsl(152, 55%, 40%)"><title>Rhaphidophora quadrispina × barcode42: 1</title></rect><text x="178" y="439" font-size="10" fill="rgb(0, 0, 0)" font-weight="normal" text-anchor="end">Eupelmus anpingensis</text><rect x="184" y="427" width="27" height="17" fill="hsl(0, 0%, 88%)"><title>Eupelmus anpingensis × barcode39: 0</title></rect><rect x="212" y="427" width="27" height="17" fill="hsl(0, 0%, 88%)"><title>Eupelmus anpingensis × barcode40: 0</title></rect><rect x="240" y="427" width="27" height="17" fill="hsl(152, 55%, 40%)"><title>Eupelmus anpingensis × barcode42: 1</title></rect><text x="178" y="457" font-size="10" fill="rgb(0, 0, 0)" font-weight="normal" text-anchor="end">Tapinoma ibericum</text><rect x="184" y="445" width="27" height="17" fill="hsl(152, 55%, 40%)"><title>Tapinoma ibericum × barcode39: 1</title></rect><rect x="212" y="445" width="27" height="17" fill="hsl(152, 55%, 40%)"><title>Tapinoma ibericum × barcode40: 1</title></rect><rect x="240" y="445" width="27" height="17" fill="hsl(152, 55%, 40%)"><title>Tapinoma ibericum × barcode42: 1</title></rect><text x="178" y="475" font-size="10" fill="rgb(0, 0, 0)" font-weight="normal" text-anchor="end">Oxypoda acuminata</text><rect x="184" y="463" width="27" height="17" fill="hsl(152, 55%, 40%)"><title>Oxypoda acuminata × barcode39: 1</title></rect><rect x="212" y="463" width="27" height="17" fill="hsl(0, 0%, 88%)"><title>Oxypoda acuminata × barcode40: 0</title></rect><rect x="240" y="463" width="27" height="17" fill="hsl(0, 0%, 88%)"><title>Oxypoda acuminata × barcode42: 0</title></rect><text x="178" y="493" font-size="10" fill="rgb(0, 0, 0)" font-weight="normal" text-anchor="end">Luciola unmunsana</text><rect x="184" y="481" width="27" height="17" fill="hsl(0, 0%, 88%)"><title>Luciola unmunsana × barcode39: 0</title></rect><rect x="212" y="481" width="27" height="17" fill="hsl(0, 0%, 88%)"><title>Luciola unmunsana × barcode40: 0</title></rect><rect x="240" y="481" width="27" height="17" fill="hsl(152, 55%, 40%)"><title>Luciola unmunsana × barcode42: 1</title></rect><text x="178" y="511" font-size="10" fill="rgb(0, 0, 0)" font-weight="normal" text-anchor="end">Byturus ochraceus</text><rect x="184" y="499" width="27" height="17" fill="hsl(152, 55%, 40%)"><title>Byturus ochraceus × barcode39: 1</title></rect><rect x="212" y="499" width="27" height="17" fill="hsl(0, 0%, 88%)"><title>Byturus ochraceus × barcode40: 0</title></rect><rect x="240" y="499" width="27" height="17" fill="hsl(0, 0%, 88%)"><title>Byturus ochraceus × barcode42: 0</title></rect><text x="178" y="529" font-size="10" fill="rgb(0, 0, 0)" font-weight="normal" text-anchor="end">Formica sinae</text><rect x="184" y="517" width="27" height="17" fill="hsl(152, 55%, 40%)"><title>Formica sinae × barcode39: 1</title></rect><rect x="212" y="517" width="27" height="17" fill="hsl(0, 0%, 88%)"><title>Formica sinae × barcode40: 0</title></rect><rect x="240" y="517" width="27" height="17" fill="hsl(0, 0%, 88%)"><title>Formica sinae × barcode42: 0</title></rect><text x="178" y="547" font-size="10" fill="rgb(0, 0, 0)" font-weight="normal" text-anchor="end">Demonax pseudonotabilis</text><rect x="184" y="535" width="27" height="17" fill="hsl(152, 55%, 40%)"><title>Demonax pseudonotabilis × barcode39: 1</title></rect><rect x="212" y="535" width="27" height="17" fill="hsl(0, 0%, 88%)"><title>Demonax pseudonotabilis × barcode40: 0</title></rect><rect x="240" y="535" width="27" height="17" fill="hsl(0, 0%, 88%)"><title>Demonax pseudonotabilis × barcode42: 0</title></rect><text x="178" y="565" font-size="10" fill="rgb(0, 0, 0)" font-weight="normal" text-anchor="end">Monomorium pharaonis</text><rect x="184" y="553" width="27" height="17" fill="hsl(152, 55%, 40%)"><title>Monomorium pharaonis × barcode39: 1</title></rect><rect x="212" y="553" width="27" height="17" fill="hsl(152, 55%, 40%)"><title>Monomorium pharaonis × barcode40: 1</title></rect><rect x="240" y="553" width="27" height="17" fill="hsl(152, 55%, 40%)"><title>Monomorium pharaonis × barcode42: 1</title></rect><text x="178" y="583" font-size="10" fill="rgb(0, 0, 0)" font-weight="normal" text-anchor="end">Amblyomma sparsum</text><rect x="184" y="571" width="27" height="17" fill="hsl(0, 0%, 88%)"><title>Amblyomma sparsum × barcode39: 0</title></rect><rect x="212" y="571" width="27" height="17" fill="hsl(152, 55%, 40%)"><title>Amblyomma sparsum × barcode40: 1</title></rect><rect x="240" y="571" width="27" height="17" fill="hsl(0, 0%, 88%)"><title>Amblyomma sparsum × barcode42: 0</title></rect><text x="178" y="601" font-size="10" fill="rgb(0, 0, 0)" font-weight="normal" text-anchor="end">Gryllotalpa orientalis</text><rect x="184" y="589" width="27" height="17" fill="hsl(152, 55%, 40%)"><title>Gryllotalpa orientalis × barcode39: 1</title></rect><rect x="212" y="589" width="27" height="17" fill="hsl(152, 55%, 40%)"><title>Gryllotalpa orientalis × barcode40: 1</title></rect><rect x="240" y="589" width="27" height="17" fill="hsl(0, 0%, 88%)"><title>Gryllotalpa orientalis × barcode42: 0</title></rect><text x="178" y="619" font-size="10" fill="rgb(0, 0, 0)" font-weight="normal" text-anchor="end">Hylaeus dilatatus</text><rect x="184" y="607" width="27" height="17" fill="hsl(152, 55%, 40%)"><title>Hylaeus dilatatus × barcode39: 1</title></rect><rect x="212" y="607" width="27" height="17" fill="hsl(152, 55%, 40%)"><title>Hylaeus dilatatus × barcode40: 1</title></rect><rect x="240" y="607" width="27" height="17" fill="hsl(0, 0%, 88%)"><title>Hylaeus dilatatus × barcode42: 0</title></rect><text x="178" y="637" font-size="10" fill="rgb(0, 0, 0)" font-weight="normal" text-anchor="end">Semibalanus balanoides</text><rect x="184" y="625" width="27" height="17" fill="hsl(152, 55%, 40%)"><title>Semibalanus balanoides × barcode39: 1</title></rect><rect x="212" y="625" width="27" height="17" fill="hsl(0, 0%, 88%)"><title>Semibalanus balanoides × barcode40: 0</title></rect><rect x="240" y="625" width="27" height="17" fill="hsl(0, 0%, 88%)"><title>Semibalanus balanoides × barcode42: 0</title></rect><text x="178" y="655" font-size="10" fill="rgb(0, 0, 0)" font-weight="normal" text-anchor="end">Thampoa tiani</text><rect x="184" y="643" width="27" height="17" fill="hsl(152, 55%, 40%)"><title>Thampoa tiani × barcode39: 1</title></rect><rect x="212" y="643" width="27" height="17" fill="hsl(0, 0%, 88%)"><title>Thampoa tiani × barcode40: 0</title></rect><rect x="240" y="643" width="27" height="17" fill="hsl(0, 0%, 88%)"><title>Thampoa tiani × barcode42: 0</title></rect><text x="178" y="673" font-size="10" fill="rgb(0, 0, 0)" font-weight="normal" text-anchor="end">Cryptopone sauteri</text><rect x="184" y="661" width="27" height="17" fill="hsl(152, 55%, 40%)"><title>Cryptopone sauteri × barcode39: 1</title></rect><rect x="212" y="661" width="27" height="17" fill="hsl(0, 0%, 88%)"><title>Cryptopone sauteri × barcode40: 0</title></rect><rect x="240" y="661" width="27" height="17" fill="hsl(152, 55%, 40%)"><title>Cryptopone sauteri × barcode42: 1</title></rect><text x="178" y="691" font-size="10" fill="rgb(0, 0, 0)" font-weight="normal" text-anchor="end">Myrmica scabrinodis</text><rect x="184" y="679" width="27" height="17" fill="hsl(152, 55%, 40%)"><title>Myrmica scabrinodis × barcode39: 1</title></rect><rect x="212" y="679" width="27" height="17" fill="hsl(0, 0%, 88%)"><title>Myrmica scabrinodis × barcode40: 0</title></rect><rect x="240" y="679" width="27" height="17" fill="hsl(152, 55%, 40%)"><title>Myrmica scabrinodis × barcode42: 1</title></rect><text x="178" y="709" font-size="10" fill="rgb(0, 0, 0)" font-weight="normal" text-anchor="end">Gazella spekei</text><rect x="184" y="697" width="27" height="17" fill="hsl(0, 0%, 88%)"><title>Gazella spekei × barcode39: 0</title></rect><rect x="212" y="697" width="27" height="17" fill="hsl(0, 0%, 88%)"><title>Gazella spekei × barcode40: 0</title></rect><rect x="240" y="697" width="27" height="17" fill="hsl(152, 55%, 40%)"><title>Gazella spekei × barcode42: 1</title></rect><text x="178" y="727" font-size="10" fill="rgb(0, 0, 0)" font-weight="normal" text-anchor="end">Oxyopes sertatus</text><rect x="184" y="715" width="27" height="17" fill="hsl(0, 0%, 88%)"><title>Oxyopes sertatus × barcode39: 0</title></rect><rect x="212" y="715" width="27" height="17" fill="hsl(152, 55%, 40%)"><title>Oxyopes sertatus × barcode40: 1</title></rect><rect x="240" y="715" width="27" height="17" fill="hsl(0, 0%, 88%)"><title>Oxyopes sertatus × barcode42: 0</title></rect><text x="178" y="745" font-size="10" fill="rgb(0, 0, 0)" font-weight="normal" text-anchor="end">Nylanderia flavipes</text><rect x="184" y="733" width="27" height="17" fill="hsl(0, 0%, 88%)"><title>Nylanderia flavipes × barcode39: 0</title></rect><rect x="212" y="733" width="27" height="17" fill="hsl(0, 0%, 88%)"><title>Nylanderia flavipes × barcode40: 0</title></rect><rect x="240" y="733" width="27" height="17" fill="hsl(152, 55%, 40%)"><title>Nylanderia flavipes × barcode42: 1</title></rect><text x="178" y="763" font-size="10" fill="rgb(0, 0, 0)" font-weight="normal" text-anchor="end">Microphysogobio koreensis</text><rect x="184" y="751" width="27" height="17" fill="hsl(0, 0%, 88%)"><title>Microphysogobio koreensis × barcode39: 0</title></rect><rect x="212" y="751" width="27" height="17" fill="hsl(152, 55%, 40%)"><title>Microphysogobio koreensis × barcode40: 1</title></rect><rect x="240" y="751" width="27" height="17" fill="hsl(0, 0%, 88%)"><title>Microphysogobio koreensis × barcode42: 0</title></rect><text x="178" y="781" font-size="10" fill="rgb(0, 0, 0)" font-weight="normal" text-anchor="end">Urosaurus nigricaudus</text><rect x="184" y="769" width="27" height="17" fill="hsl(0, 0%, 88%)"><title>Urosaurus nigricaudus × barcode39: 0</title></rect><rect x="212" y="769" width="27" height="17" fill="hsl(0, 0%, 88%)"><title>Urosaurus nigricaudus × barcode40: 0</title></rect><rect x="240" y="769" width="27" height="17" fill="hsl(152, 55%, 40%)"><title>Urosaurus nigricaudus × barcode42: 1</title></rect><text x="178" y="799" font-size="10" fill="rgb(0, 0, 0)" font-weight="normal" text-anchor="end">Zele chlorophthalmus</text><rect x="184" y="787" width="27" height="17" fill="hsl(0, 0%, 88%)"><title>Zele chlorophthalmus × barcode39: 0</title></rect><rect x="212" y="787" width="27" height="17" fill="hsl(152, 55%, 40%)"><title>Zele chlorophthalmus × barcode40: 1</title></rect><rect x="240" y="787" width="27" height="17" fill="hsl(0, 0%, 88%)"><title>Zele chlorophthalmus × barcode42: 0</title></rect><text x="178" y="817" font-size="10" fill="rgb(0, 0, 0)" font-weight="normal" text-anchor="end">Pristomyrmex punctatus</text><rect x="184" y="805" width="27" height="17" fill="hsl(152, 55%, 40%)"><title>Pristomyrmex punctatus × barcode39: 1</title></rect><rect x="212" y="805" width="27" height="17" fill="hsl(152, 55%, 40%)"><title>Pristomyrmex punctatus × barcode40: 1</title></rect><rect x="240" y="805" width="27" height="17" fill="hsl(152, 55%, 40%)"><title>Pristomyrmex punctatus × barcode42: 1</title></rect><text x="178" y="835" font-size="10" fill="rgb(0, 0, 0)" font-weight="normal" text-anchor="end">Pagastia tianmumontana</text><rect x="184" y="823" width="27" height="17" fill="hsl(152, 55%, 40%)"><title>Pagastia tianmumontana × barcode39: 1</title></rect><rect x="212" y="823" width="27" height="17" fill="hsl(0, 0%, 88%)"><title>Pagastia tianmumontana × barcode40: 0</title></rect><rect x="240" y="823" width="27" height="17" fill="hsl(0, 0%, 88%)"><title>Pagastia tianmumontana × barcode42: 0</title></rect><text x="178" y="853" font-size="10" fill="rgb(0, 0, 0)" font-weight="normal" text-anchor="end">Mustilia undulosa</text><rect x="184" y="841" width="27" height="17" fill="hsl(152, 55%, 40%)"><title>Mustilia undulosa × barcode39: 1</title></rect><rect x="212" y="841" width="27" height="17" fill="hsl(0, 0%, 88%)"><title>Mustilia undulosa × barcode40: 0</title></rect><rect x="240" y="841" width="27" height="17" fill="hsl(0, 0%, 88%)"><title>Mustilia undulosa × barcode42: 0</title></rect><text x="178" y="871" font-size="10" fill="rgb(0, 0, 0)" font-weight="normal" text-anchor="end">Branchiostegus albus</text><rect x="184" y="859" width="27" height="17" fill="hsl(0, 0%, 88%)"><title>Branchiostegus albus × barcode39: 0</title></rect><rect x="212" y="859" width="27" height="17" fill="hsl(0, 0%, 88%)"><title>Branchiostegus albus × barcode40: 0</title></rect><rect x="240" y="859" width="27" height="17" fill="hsl(152, 55%, 40%)"><title>Branchiostegus albus × barcode42: 1</title></rect><text x="178" y="889" font-size="10" fill="rgb(0, 0, 0)" font-weight="normal" text-anchor="end">Vespa affinis</text><rect x="184" y="877" width="27" height="17" fill="hsl(152, 55%, 40%)"><title>Vespa affinis × barcode39: 1</title></rect><rect x="212" y="877" width="27" height="17" fill="hsl(152, 55%, 40%)"><title>Vespa affinis × barcode40: 1</title></rect><rect x="240" y="877" width="27" height="17" fill="hsl(152, 55%, 40%)"><title>Vespa affinis × barcode42: 1</title></rect><text x="178" y="907" font-size="10" fill="rgb(0, 0, 0)" font-weight="normal" text-anchor="end">Etheostoma tallapoosae</text><rect x="184" y="895" width="27" height="17" fill="hsl(0, 0%, 88%)"><title>Etheostoma tallapoosae × barcode39: 0</title></rect><rect x="212" y="895" width="27" height="17" fill="hsl(152, 55%, 40%)"><title>Etheostoma tallapoosae × barcode40: 1</title></rect><rect x="240" y="895" width="27" height="17" fill="hsl(0, 0%, 88%)"><title>Etheostoma tallapoosae × barcode42: 0</title></rect><text x="178" y="925" font-size="10" fill="rgb(0, 0, 0)" font-weight="normal" text-anchor="end">Hyphydrus ovatus</text><rect x="184" y="913" width="27" height="17" fill="hsl(0, 0%, 88%)"><title>Hyphydrus ovatus × barcode39: 0</title></rect><rect x="212" y="913" width="27" height="17" fill="hsl(0, 0%, 88%)"><title>Hyphydrus ovatus × barcode40: 0</title></rect><rect x="240" y="913" width="27" height="17" fill="hsl(152, 55%, 40%)"><title>Hyphydrus ovatus × barcode42: 1</title></rect><text x="178" y="943" font-size="10" fill="rgb(0, 0, 0)" font-weight="normal" text-anchor="end">Fistulifera solaris</text><rect x="184" y="931" width="27" height="17" fill="hsl(0, 0%, 88%)"><title>Fistulifera solaris × barcode39: 0</title></rect><rect x="212" y="931" width="27" height="17" fill="hsl(152, 55%, 40%)"><title>Fistulifera solaris × barcode40: 1</title></rect><rect x="240" y="931" width="27" height="17" fill="hsl(0, 0%, 88%)"><title>Fistulifera solaris × barcode42: 0</title></rect><text x="178" y="961" font-size="10" fill="rgb(0, 0, 0)" font-weight="normal" text-anchor="end">Harpalus pensylvanicus</text><rect x="184" y="949" width="27" height="17" fill="hsl(152, 55%, 40%)"><title>Harpalus pensylvanicus × barcode39: 1</title></rect><rect x="212" y="949" width="27" height="17" fill="hsl(0, 0%, 88%)"><title>Harpalus pensylvanicus × barcode40: 0</title></rect><rect x="240" y="949" width="27" height="17" fill="hsl(0, 0%, 88%)"><title>Harpalus pensylvanicus × barcode42: 0</title></rect></svg>